# xmcd
#
# Track frame offsets: 
#        150
#        35412
#        49565
#        63837
#        83325
#        102945
#        119500
#        141282
#        159867
#        181517
#        200597
#        220520
#
# Disc length: 3173 seconds
#
# Revision: 3
# Processed by: cddbd v1.4PL0 Copyright (c) Steve Scherf et al.
# Submitted via: ExactAudioCopy v0.90a11
#
DISCID=910c630c
DTITLE=The Judds - The Judds Reunion Live (12-31-99) - Disc 1
DYEAR=1900
DGENRE=
TTITLE0=Love Can Bulid A Bridge 
TTITLE1=Girls Night Out
TTITLE2=Rockin' With The Rhythm
TTITLE3=Have Mercy
TTITLE4=Love Is Alive
TTITLE5=Turn It Loose
TTITLE6=She Is His Only Need
TTITLE7=I Saw The Light
TTITLE8=My Strongest Weakness
TTITLE9=Give A Little Love
TTITLE10=River Of Time
TTITLE11=I Know Where I'm Going
EXTD=
EXTT0=
EXTT1=
EXTT2=
EXTT3=
EXTT4=
EXTT5=
EXTT6=
EXTT7=
EXTT8=
EXTT9=
EXTT10=
EXTT11=
PLAYORDER=
